<mxfile host="app.diagrams.net" agent="Mozilla/5.0 (Windows NT 10.0; Win64; x64) AppleWebKit/537.36 (KHTML, like Gecko) Chrome/130.0.0.0 Safari/537.36 Edg/130.0.0.0" version="24.8.6">
  <diagram name="Page-1" id="JJCV0a0skRuT-O4mbDWe">
    <mxGraphModel dx="1468" dy="821" grid="1" gridSize="10" guides="1" tooltips="1" connect="1" arrows="1" fold="1" page="1" pageScale="1" pageWidth="850" pageHeight="1100" math="0" shadow="0">
      <root>
        <mxCell id="0" />
        <mxCell id="1" parent="0" />
        <mxCell id="JFlnpJh5XMgrk-D_HzM7-1" value="" style="shape=image;verticalLabelPosition=bottom;labelBackgroundColor=default;verticalAlign=top;aspect=fixed;imageAspect=0;image=data:image/png,iVBORw0KGgoAAAANSUhEUgAAALEAAACjCAYAAADFN/9VAAAAAXNSR0IArs4c6QAAAARnQU1BAACxjwv8YQUAAAAJcEhZcwAADsMAAA7DAcdvqGQAAClgSURBVHhe7X35jyNJdt7Lg0ySRdbZ1dV398zszli7Xss2YMOAAcuwf7F+sQH/e/4XDBiwsLuWtJAsGxp55RntzrHd09PXdHd1dXWdJIs389D3vcisYt0XyWLW5FcVZDLyinjxxYv3IiIjrQiQDBlSDDv+zpAhtchInCH1yEicIfXISJwh9chInCH1yEicIfXISJwh9chInCH1yEicIfXISJwh9ciGnYeNKMRHEgBK17LwAX1hUWdwO8MwkZF4mIgCcLgrUdSCYLv6mySObAeSLoHDCFYuJnOGYSEj8bBAAgc7EvobIPK6WEEdwu0piUM7J5GzILa9KFbuRkzmjMjDQkbiSyMCaX2EuoTd1yAvCCwtxMOciGg6IFggeORi25Mod1/s/D2xnOmMyENCJsVLIoINHIUNCfvLYvkfxAo7CJbYoQMNwWBj2xUbusKmieEv49gVnEOiZxgGMhJfCjR4YTIENRB4Ezq3C+2KODhyEZ053YamVoUMUePbjtpQzBs4p4pI2MwZLo2MxJcCSQztGu5A+8KZY5QSNt6nIYEht+6G4xeFNQScm+HSyEh8CagpARJHURO/+iZSQcLiS7Uxv+OAeENjOnwgMitAhksjI/GlAFMhglMXgcBw3tR8OBU8hmZEX8/NcHlkJL4sVNtSu0KUcOJOh7N7nKXnZbgsMhJfCjaMgzxCUcLIgY4FQY3dcCx4nDnWA4kLcWyGyyAj8SXAfl7LLkK5VvDDRaCNGw83HwPL7kDqIL41Y87NcGlkJL4U4KZZntjOnFjODSUyXbejLGPGsdstwjE81nIXEEPNneGyyEh8WVggoj0tkrsHU3cBZCWRD4MEDrEjsm+LlbuL06C9MwwF2bDzUMCh576E/geJ/DWJeltiBW3oZA494x8hLM6JzTkT7kOx3XmYEhyGzjAMZCQeIijKIGxK8OF7kc03MJE5tBzpBCD57N9IzluE6UGHLmsAh4lMmkMEu8xcpyzOGhy+v98W+V9vEN5KhG0vnBPHzgg8CmQSHQEsnRNPU4LziUNxTu6wyHBJZCQeAThzzQmcOHDbRVw2sDEqZCQeCYybQdqauRJUxZnrMSpkJB4ZYtKCw1FG4JEiI3GG1CMjcYbUIyNxhtQjI3GG1CMjcYbUIyNxhtTjRzF3oh+E0u370un50vMD6YehhCEfLRpu51cYj2dYP7yR/KvX4tVq+GFJUKmI+yf/VsIiF01hr9vw7qp90ZzXjAvb+JFzbMm7triug99xgq45riWJmaEuCLvT7Umt25dG15dWpy/tbiBdPwSJOVGHD3kimFOGAs4ltq1ICrhvuduWgt9TloV5T3JLSxK5Ofwc7sAHB1N0PoZt49+SvGOJ51pSyDlSAJGLeRekdsTB/uvK6WtF4gDk7PT7Uuv0ZGunIx8YGl2p9/rSB3lDqMoooh4klfbWfBiWAGxc24MWnC7kpZyHRrTjK4M9jg3NiJ8cfR6mwM2IIFsBWoaROKhEDC5IOwUCzxZzUkF6prycFPDbhaa+brgWJGYWaDLU2l1Z3m7I0/WabIG8fZ8T0W3QFQTGn2otEokn6SydIasm8KNSzMsciFMCWdyB+4U27kcCRzl8DPe+vBqMFnzuzTTi834WKk4OrU0R2nmunJcb0yWZKXqSh5a+TqZG6knMxHegad9s7sjj91V5U21LF5EhCo9NO4+wQk7AccEd2MBxGAWRKmi2bxRdaD2QF8RBCkhjvZf5trHJR/v3yDY04B666hA3NTXmkxOPzK8QJoYlt6eL8mChIiWPz/nx6PQj1SSmc7bZaMnT1W15vtmQ7XYgAWc/onDGkSm6hSGYAEsYpoOAwDmZLXhoshN2TA5LaEaRtK4Tyiwq2aMbMzJfKanZkXakksRMsQ+2rlRJYGjfWgsOXCAwe3XhPnJnPCQGcC8H9mg578jClIeme1KbalY5yiZEekVKOVcezZZkcaastnKa18BIXTUkR7s+CdyUP6xsy8vtjlQ7kRJYFR/COAhM8HY0GPK2BVI44sEOnlQyGALjExrZh1lT64Xydrstq5Bjq8vViMYlteEjVSROCLy+05YnqzX5Ybul3We0f2mBollBUY2XRC5IW4BWY0/A6UunXCFYuUBe/pkJ+pbUu6G8r7VlY6clbfgVaSVyqswJ9kBsNtpqQvxhtSHNPtQvCKy6V504dqGhXiqTSGfVPwDrKm1X/kI8jlV3J9GaF5AAz+Tggue6Mh33SDgQpXGjxoe9pDOv1LTxzzhvFAsHYZKUqZjwywzM0JqPZL7kyt05mBbTJc1P2pAaEnPNhp12V16s1+Srd1uy3iKBWQzhrle+BxQYs6XxzJ6xU12UYA7BBac5MHCZpp9n8jpFLyczJdjCHCFTUV78mhcDiRtJwKCDOOxoA0mhbRnPvmklrOZ1f9osKAA6pszHYjkv9+emZAHOXtq631JDYg4Xsxvtq3eb8mKrDeGTNAGKhfpnfwFRu8B9QfmyrzZUW7UEx6uSs2UKiqaIXQ68GyWx5v4CIsCpHNotFT0pFwqoIIzifccP9tL4KMYuGNxG69TxI5gHAVouIxmjfvfkk8DB/pAsx/4CZLM0XZSHC9M6MJImpILETOJWoyPfwpH79n1NmiikeE/8vR/UzqHkxANJFzwUTtGWeTCXhVMEic0aPZfLtgVN7uY9KRSK4uVzECSba1aoK0BcF5XI/UAdtWq7L1toudo6UkkT6zCJTWLNyCWHpSuFnNydL0Ejl1OljVNBYtrCz1e35auVqizXezCDjb5TMyJOvbF3dUObyClo2juwU+9MeTJfsJW8xoSItdMlc21Du3sc/YIW5pDylRZ5fHMWJQPnhZC81XZPNlD5d7qR9DS/e5mmcoaxgVONWcb2y4M2Xqzk5eMbFVT49AyG0OOZeNBzXoNDt9Xqqd6gc60ONqWPb/OeDMZRG1pSgla5V/bk4UxOlkq2lHO0++jEsPCSky8XbBDXsV3VYIy5UpCERgSqQXMOWh20DovlAkyEEhxPVwdjTEU3gaOWJt345LwLfPlQFjudvtTaHe3xSQsmnsQUebXVlc1mT7WLRgxANQkLxfxAAYrcLjlyDxplvuDA20ZhkeRDBG1pB0RhYKWZHDAtJrDrr+S4sgCnc7FUkDIn/3APtbVKK5HJXvrD2BzhHBT6IClopBWTT2IIcgNauAYNQSvC9ADsh4kBsVAe054FArtqQuTYB6azu/YKahggiV0QxJ7oIVvTKhVg9syXOByewzacYcZCYEfRk3E+nMRGx5dWj/3vRx01eZh4Euv8iGZXGtAQxlw4IFj9aZr0Elh8E4W1AA2c1+YS2WO/se4dHiyQl1p4kklMsdBq4iSoYt6SmVJeJ/0Y6/14ebArs9OP1Dlkl10aMPEk7gWB1DuB9CBYFk1iye3BNOjsVisjN0uFvBSpJRFr6GvOGwZ00ADBgnYDO7BxMC2TBGM2UF6UBHtmKgXY8Eg7HTrTou2XC3/RFubc6xacwZRwWMt5otFS+4xdZsdLlHs4G4tPMRRdFJBq7GTPkEsC11ZnbqJNiT2YSm/pI0tFz5Wce5ouNg8XmKdfUAlSQOTJJ3EfmgHqj9rDYL9Uk2422r8kMB27QybHkOG4k24PHwb1bx6y4aAGK7mR534qJ78o0z5aQIY0OHcTXxLsI/ZJ4l3tuh9s3rmPXWicTebqhPPRCZ5OHQl8mSHrq4ANMwH8VY1MHCch5opGSB+BQ9n8m3RMPIkpSNOmHSPOJFLJlRB9VAQz6TCDJsnv9ICF7SDtNowz4zHsB3Oz22GJDfYGZebEWcDazsCnj48IATvdoV1NfzAOP6ABdaIPYDQywsgITKSXwCoXVnTdYtqPl5M+0IrALjY1J+Kg5XQgbhJwZSRWkvb7EjRbEtTq4ldruyEYDK0mHIz4mSOeN+SBi/MijabEWcFcxfOBJAh6ErQh+0ZDgp2d3eAn242mhJ2ORD5fC3y1ZXIlcyciOAxhCwLY2hJ/fUNCCITCYM1Wegyk6IXk5O/silQjPjuckHiARPgZWbbMFhz5ZDonH5fZQwEPZgQI0SIUCgUplUraT5wuRNLs+/K+3pHl7Rb8jKPSbx4soHTLUVcedZsyE/Z3X2oGHay6hEP32k9emRKZmxd7ZkYcL48dA+UyRoydxNTA4U5D/OevxP/8C3GevxS3w7fO02SAABMix3hy/6fy+T/957I1Pav7VJSDwhoiic2d98QxmA7dZ4dSLBY1jLN3ginac2svWlxnIzGP49/c5oZ8/P0TfK+L20f5EJoESCI0xp1f9MT/6Sfi/PEvpPDgrlju1UzhHLs5EXW7Er5dFvniH6Tw3ffitdriBL44ILcTwuZEGVHZJkHEEDzRAqNKMknKftFqfUdevH4j3796KWsoyD5MHt0fc2j0pgQzjbwiz10018tv38njJ0/lFdLUYIulMhkVmDcEZpa+CKlK5ZIElJEFGTGezmEO6Ss8ey72V19Jb22NF7gSjJ/EIG34/oPIm3did7oQjtF/x1MjLrXjDxgK2CC12215jIr1m7/+3/Lrv/yNfPn7r2V9YxNeumklxodIer2evH33Xv7qb/6v/Pf/8Wfyy1//hbx49YN0oQR2ZTJy4D4nyJ1lZ7c7IqtrEr5biWPHj7GT2Or1xa7tiF1vxDGTARK12WrJyx9eQxO/lec/LMuzV6/lA0jM+blUgeO0vNqo4G+X38sfnj6Xpy9fy++/fSyv0YK1kMYRq+NzgSrIhn/jbNbimPFj/CQO0BSByBbss/Hi5ILX5htargbPu4O0cai73mhJo4mWQ5vQUeBwG2RiLJgxvpo29Z22PmZUhSlRw+8uNLRxoA6fa8C0jo/kamb5gThdY3ZdBcZOYgVkrE7aUWUwEhiTRRGXsd6fGhaVKvlmrwnJTE3H4yOdO8ATYsocYQ/jaOmjEBsg/NZ2TbaqJ4dthCZMKk5A37vyIPROmka2DrtpwQd/h+zZwTcdZKbb+A0JBtIab48Der9YTleBKyExMz1eaL+HFquGMBAbWtcGmWxoOLuO0GxBm8DexD46mRym5WT6iJ4mcUQhMcb3fZC3Ko+ffi+//eJ38vlvv5S/PSH89v9/Kd8/ewGtWt9Nzz6oakNAhdH7I3ApAN5f+2TRdIfVHQlQYXxo5rAJZw+mR4h9rFB8NMvQfjxSThzxg4NQ48TVaOIxg6vecF4xn+4lecOtbQmXVyR89Vail2/FQrBfLov9fkNcEpmlgpDLu5LLcYkn0AOBWnnQLqbWrsP8+PbxE/mfv/xz+dVf/pX86jd/Lb8+IfzyL3DMn/9Gvvn2iVYAXMVcLAHvTRqiZHh/Tp0MkHzOC46qVek/eyWdr55I6+un0vj6O6l/8500n72U3tqG9r3b+oQzi/VHUbSKH0VOVTf1e2JtVSV68UZyIKy1uqG/pVaTqF4Te6cus7Drfj59Q+5Pz8ndmXn57P5DuX9zSYlkyGWadEPkCNs0IxqyvLIqr16/k7WNLdnc3JKtE8Iawis4aG/hzbfQErDrahDmypGUiwX5yf378tPbd+VGqSx/NL8kD62CeNC+/Y11Cdc3RFbx/W5VK2P/8XPpfv8CZF7XkdBDleMa41qSmIqXnEuKUR1JEDZ8916crS24/k0YsoiDfcm+T2NbRlK0Lfn5woL86cefyH/+yU/kX88tyKKbLLZnVsYZ1MRcSLCQ96RSnpJCIa8ED3BNLnZ4XKCTWPBwTqWM7/wRjb4xIThdctH15N/dvi3/9dOfyH/66GP5COfkkbkI2pYmEU0fC/Z4yAc7q9viL7+X3g/Lhsh+f1cO5qrXFyi7gVIZAyIIOvqbzyX6P5+j6ePiJ4eLcRCPHzyQz3/+r2Rzdk4LhEOe++ZPYPPgiJ2Xc8RFGQcOCExLYBMEXvkgFuxIx+9JAEOOLxE/CmZCOOdqgKSloti3b4p1d0msQgnnBTAvclIul8UluXFQCwR6DW347eOnsgnbOAxgt55AGcdx5dbNRfnZZ5/KJ4/uC5W8sWETQMPjGv52XTovlqX9Zll8mDicys5V3p0jbU/ej5OTbLFKU2LfWpTCR/fFXZhTm1WfSMFf69QRO3MdUmJu84N8/Oyxjtzl2CNyLCAFryDyR5+J81/+NI4bL64lifm+CgfkDUAQpwdCvn2vWpgaWdeN11ue3AiZwrcknK2Idee2WCCe78DpcxyZnp6OSYxjID52ye3stGAeNKFpOQfEXOMoWCAxK8E0tDcrG68xeDjJFsLJ7L/7IL0Xb+G81VlI8d6TQGcUV8P1rZmKeB8/lPxH98RGehl9nUl8Lc0JwhQHipb9l+222P0ufDtDYC3sU0DtyBkCDnswdpp6LY1HASd2MeNoahS4xsP8jDy4e1se3b8njx4cHx7imBuz00pgvZ5+7kfU7UnInof2OQY20LKoRodikHZXgnpTAlRak0pS7friWpKYipo8ZcGFtBnZxFsBvHwUKePxcVqhUtsrAaBZaV/y3AS0awe5RbPCtqAJOdeYqwGdELisAI/FHczJB1LCX+yv9mH2+BHsdtzotLQSeh5bDmxEEfLMNEPzakMbX+As10kjrh2JWVC0g1mYOlmFOQS5yF6H5YlAIicUOg4hDuS1QhCvD61JPceLsbsuCLi+GX/zCEJpvLt1UiDRzLHJuYdTEsH25RPVanXjUFL+JPBKvCrUMK6PtMEWivgEh94L+/CR3O064mpJPCrJ4rrJpR3PE6HNZrsgNx9VJ0FPo4WIq8oSpM0XxC4W9xGJPRCjdCVs9k2XSppuNwAZT7mVthla6XgsK0BeXKTZ9fLaOlx3XA2JKVdoiVHBmAzY4D1oe06XJYIzFoHIxjE0x52GALZuhHPtaTh38TkkryGxstxEDhkuKl5+blZkZlpCPth5hvRqdhnyntg4z4GNzspwppNTjvGT2IZ24+RpePeJBkn+jgcKIt59GgF5WFKgBJtVa6Ys1uK8yFQR9x7I8r5b7jX5PDnkGr1wwKz5WYmK0OYAr8nAORUh5z6oSTFc6D0gHxeVLn97CfefkYhkPKbS78Zyfz4vztwMzrsp7hwrrdmbyOT01JojkmvunocIDYNxSUCljtgDggp/VRg7iZnZCJoioJaBuOBLG2eE3/g8KKREpPw0Fp6JPQ2DR0V8dIZkuH1DAhSuFAogCoih3U+oVCQAn9Rgp20uh6YcZF+YF/vmDWjDCojPnoTBUjTamL0Uw4ZWI1a8YkE83N97eF+cxQWxy6iI0LImzThuN82w10le9l0v3ZDc/VuSw7dd8M4oqYMwZ1HeBH8xl0nYFQED04G0huUpieahJK4IYyexEuTOkkSP7ksAwdNxIpkZYtdn3x/tPDUNIDEzByIR73mAgi+WJLy5IAHuLTcXIfQZCWEqhJWSRCgEYYD2k4U5kVuLYt26KRGbdBCEWo53TYI+he37SuTRAHchOcslyd+7Ld5HD0HOO+IsLYqNloHmgl0BqVHB7IUZJa334LbkH90V985NEBp5QeU8v6TiMtBMMmBjkLUDm9oTgjQGSEd057bIXYQrwtgHO6C+JKzWJXj2UsIvvxZrZVWs3Sc8BqQV4+mtB/LbT34ha7BLKWQHaju0B8iDw099xk5LhYUDXYL7W+y873Qk7PV1LqwNs4Arv9PEoZYWmA9sIlXTHQMOehRK0JbQeMN+ZEklkBAJ30x20OqI32zqJB9h+tkK0DSCqeFCa7vlolh0Yp3j7ODTn7FjCbBXJhJfFje35NEPz2Wuuim55BGtOGjSIK8I941u3xbrs0/F/eShtghXgfGTmCCRm20JVlYkWl4Rq9HWOQAqogPy/0O+Il/mFmSdL8XAfjvk623PSWJAtTlgurj4g0Vm4s0tEYsNPj3GIWnTxWaOIcwgSfwD4BBvHmYKV4vn6N2wkGhBfjFwBpszmB5OEcV+bZXwr8frsfEGQIVg8jmIs5CY+efNQ1lARXnQ3pb5flvyHIaPQbZQDuwGtKeg8e/cEVlEC3GF7/m4GhITvC3IrBPRISSdgL5XDrt4vt6Qv3vbkPV2G/tZiNSOA0mmQFFgs54LEufl4wpJvF+D6tF6rm7wY+CbW+Z6JLe+5lYJYo7nUWoLYmOQxNS+LrQgSexRAw4JyS2YA96flYfQfm/sJUGZGFbcBPEhgDlb5YjNvXhzLkn8DiR+BxIHobGt94MSMCfOo4X5aN6TuULOrPMcw9wBh9BcQWukCyue0GKNA1d3d5CAdp+FJsj2TF+sUzgcbGpVlSE1JDcSMQ6Cgmc89+8JPIHG6rmD+3i8CckW95OohiwaofE862BfLeu+z4k6Q7aNk1TydgmBCU2X5gFFxorGNMbBHL2XwKTyHUIsAz1y7/ABmAqsgZrWzcFE8Ez5HAwoN3WOr5jAxNWngGChHBu4H/8sGC2Eo4Cdx5fMyKBEjkl8VQ3amaEiwt+Z0mlkb1PbsgAGQlIu+ntCMBkkPgE6vTDePgksHO23HSOZeE8SmGtTTDyJIUSm8SzdgoajIDG7+iaHq8di4kmchzlhoy2lEjaK+ABZNM6SANE9FJCuojku4FasOEE/0HAwaZMFzvmIdBX4kMPpib10DOhHcwVN1boTjokncQle7xGdDftAZ48caqGAenQQ4/hRA0WsXl/gQxv3+GKc07XcVYGNVM/n+ziYZNjFx84fYa4sOHN8fbDmcOKRAhLnxYMw4UsbhyOOHwTjuMBJE2TaAZmplccJNtM0KWgfj2IoehjoQigtyIfvQFEcqYkhY8Rz4JKvEuYrJDJNPATkIMxyIadCNd1L8Y4DIHEbfiRrbV8LbJxU2rWNoY25DO0k2seNXk+q3a6aXCpE7ao8CJI4FM81L6pJywy4iScxE7gwVdQ3ZBocEKzyxdjMbZCXrwtr8sFJLooyRpC4XD9t0pw8alKmqd7qSqPLtSmSbrmDRc847EN0Ie/oS2o4HzkNmHgSU45LFU9fnq0/DgJRZi6t6Z2o9SN5Ug9kg7ZfvMoOCc79GhBxfFfd5UCbuNftgzQgi9ah0dznePB+cNq0WBGQzw4q9mqrL5sdtlCIUg18lFnGOAcOnSvlvC2lPEkc75pwpIDElswW8zI/xQdAlarxnqPBV1d9gPfyotqRtR57LHB8hCYezSTPJX9HxGEQxKwI1INZwe/xa2Tez0yn0rXlUIk3G5BDowdzgt1rzHgSDoOal0P2Mxyl40BUpomHhyJMiVvTnhJ5YLT1SJCodF7ewqx4Vu/J+yYKkK8RSxw+BLWtRwQ+/czmm8EMgsQ7RgxWTFZTvuOEr+6iDby+05bVWkt2oIV9zfzxIF35dqWKBxKXCqkxJYirmztxDjCJW822fL2yLd+u1qXdO9nepb4O0Ba6KNDFoit3SnmZQ0UowWEpOpG+vDuZMD5MUJAqTFw/57risWcFgetFjFbI0LIIqKuowKF0eoHsdHuyBQ3cgnmlHSankFLfi11w5O5sSe4tVDISjwJ86/urzR35/fKWLMNU2FMsh5NPuze0UawoB9qAJXzPwM6bKeZkGt9FlFjuhGb1otiXEpAgn3OkVPCkiObZjDsiHNm1dTmw9eGLxbt8nS0I3IBd3sZ38hJLszgijzuYX6QFx9BsKEIN34Tv8WBhSsqFq5lSeVGkhsRMZqPTk+drNfniTVWqHfZ3slBI1vNlgf2fHprOUdt8VPYkx/xUXqZA6Ijr+IyAxDRhAti75+2Q4bROTj3No6VYmMrJvbmSLE4XRy6XYSM1JCa4ltkWHJXvVqvy7fuGtHxqEkPi82TCFBE+R15WnERjyVTekfmCC0I7wvdCUy2eL8UnQ/saLnA5G8QPnUBmS67cny3L0nRJh/nThlSRmCntweunw/J4pSqvtlpw2gKYFhfIAm2NEUNvAcJy/bQp2OOzIPIoBhH0Nvp5PnAdjjJsrTuwg2+CwCU+X5gyLUykisQEk9sFcT/UW/Ldh5q82e7ITs/XrjWqI+o4drqYTOGTzTe/LlDIw4Cmw+JCKBFMCtjlsI9LcDK5XKxJK5OIrUskz5x68ALm2ub+ZiP+Yr2ChERmYVMtgcCLFRCYlSuFBCZSR2KCSWY32vtqS16sN+DotWS70zdDqshNshqPPpxmIlCAhwto1Bk/eEf2ANA2rniwkbmAN1tuEgrO5+UbhoMXMHnndU0+IQHKAb/zSEgFFenOdF7mK1NSTDGBiVSSOAF7LNbqbXm9ZYi80epJu8++UpZWPIqHPzNCNxmFZOOPXX3sj51CyGHbtswzesNLYZJ300OTxNCsKbqWtgZL01Nw5jzJc7WhFBOYSDWJCb7Apd7uaqf+G9jIKyB1vdsXH1qZGWPhTQqBDWydkeeBt9TGUyAUicTV3th+DCelJudGG7MFAIGhfUtwMG+UPLlRLsp0qaD919cBqScxwRzQvKi3e7JabcrLjbqsgNQt2Ml90EKncE5ILm0kVpt4EItdfSUQqVyyQeiCsDd5l1aXYrMhMWekObgQ50HMlz1ZQJgueOKh0qTZfDiIa0FigpnQCTgwMThbq9rqKpFXd9o6s60N588HRUI03XzcnUu2nASdNI7jDKlIPC4XcPmCN828ceR4NXZU0DZmr8V0IS8Fh8u/4q48AOCj+qYGnlBMeoix+unS0vb24EROQ8vPQvNO4bolqH7PZRcfjrtGBCauDYkTMDvsqOjDzGj1+rCRAx3FasHEaHQ5DAuiYx9facBBAi35I8DoRtuXrYYvDZzvK1NOJv6FgMuyn4JE5gr3NC1ytqPzp6dhM98og4Ag31G805LDB0lJcnLSDvt59Tr4zsPe5jfnZJvn5QzRrxuuHYkHQZKS0DopB8Tt9X39puPHoCQ+Bizst5sN+eZdTV5XO+LzeGsEb0GlBo34BAXICCJzMIRPGVdAxI/mivIvH8zLHLSpGbbeD6bexHJQBZUBH7RzaaboA7aIu67EHcS1JvEgNJPI6sHMnpT7p6vb8rev1uS7tYY6kEOwJo7GHhvxZUhXQfP/s6WK/IdP78hipaBkPAoHY6+bqXAWXA/39Axg0bKA6dAMBjbDxwWapiRuAJbpH/tzhxpgGzNAC+/WJWxo66GbSAPuf1S6k6CadiD8GPGjIfFFoMTSDy60B5IorYYZ4soFQmtfNgI7Bs2f7kj8uwwnICNxhtQjI3GG1CMj8QlImvtxwtwvvitsCe0iznAiMhKfBBDIENnYsAct2qNCcsZeOC9oe5tPc/ZFrvHjQqq72NjPyzkSfB8zt01OzpYdpUbszRvSHMazDzX5f6835PuNpj5oaUh6MpIjuPL87nb8fVawt6KSd+Sf3KzIn3yyJAvl/V1sLDLtveD3oewenX9ztkkTezX0PdEI503bJCJ1JGZyOWDBYeRmHNo+32DPhfJOzooWGD5YiByaNUSLCzb+TkjA7eVqW75bq8tKvasV5VRB4QCex8k2nJ1GoiTXPx8ifazp3kxB/tntOV0BSa9BIiOPHKjh4Iu+TB35ZkXmfGrK5jgR8HwGpsh1HCmikpS9nH4Xc26c1nQiVSRmYbW6vmw2urJSbchasyvVTj8mMUl2fFa0EPHBETEdngXR2Bec7GMR8mciDtqifNR/mw9ddgMK6lQSc1IPr8WpliQe399s3op/DhHjUF7F5qwzkOtGkU9LI16Taq7Fdef8iMGSTj+QJtK40wukAzlwn8mDnrAPzBMrcA4yKODafCzpVqUgd2amZH7KA6HTOTEoNSSmpt1udeTVRkOefNiRle0d2dJVbQ6T6+BvkoKal3MIuEQTH4zUodl9BWaMheRcJS33x4fw92kILTPNchYEngP5Ci7n6nLP2UVsqoG5KVPEWW86CYhgtG6a39xPTdxExd5q92QDYQeVOlm5nsuoHEQSw28oYlmcKsijuZJ8dnNaHt2oSKXgpY7IqSAxk7hWb8m3K5vyu5WavN/pSx9a56wJ56wwTorhg5qeamASf/g+LQdEeP35Yk5mvLzkUVFiFo8UHCChFt5q+bLW6OgMPk5NPVU+Fh/ld6SEND+c8eQXd2blZ3dvQCsX4gPSgVT0TrBQvnm3LV8s12R5p3dmApP8dIg4LZETwjmri7waVa2l1vRgqnDKo95HNeio7rYH1apoXRZQeW6VizAT8rum0skwjmHTF/mh2pN/eFdTRUHzZPJV2x4mnsR0Xp582JZvPtTkQ6MnQf9023QQfD1XAbaexxlieibDaLQj7V+SKQfNZo+JwITa0Lh3no8eFW25ARKXkefToAYUbGsytu1HsrLTlcerVXm5XlX/Iy2YeBJv7LS0q2u13oX9F0eeAbRhcyijIkjFRbq1i0q5yw/dGDqofV0QiYQa3V2ORkJkri3MZ+hol9MHQGx8xOEKlUyk5z7+teHIrux05Ol6TbbhNHNVoTRg4knMFX/47rUuNLAKPHFyTgCP5NADHbgiNDDXXjMYHbV4CxcamMGQeDT3OQm8J+1/rmzJlUTpA5yckkF5sO+Z77qL5HW1Je9rTSiNc2iNK8REk5j9vk83dmS7G+h0SLowZyFxAq6FZpbs56/Rk4p9rXwqgw997ifI+KBERjq4joSuOLSb9zOkBaL1YVZUG3198JaPeqVBF08siemU9fp9bd6aAXREbGOeTag4Cuc78LzHOcfWhRbksMTxDfh4kJgVXM/5TP7dLtB+hZauqrkBZ5qPdoUpMCkmlsTUwo1mU99M5MDJ4JJLEtFZOd1hIWxoIw3nK8WLA+lzIc7k0fs46kqIzBxTA/N1thDBWXRwDB5pQfa2Ko4211im4zfhmGBNzDf+mHeu8SUpOlfA4sjZ+YTK61wEtKvZl3ymwEEO20VAWu1IXypu7HJDH+M2nfWPlimbcT4OZQY6LpIFnuNCbtounJnFNNdMq8d33kH8F5bfODGxJGYxsCU7LMNxSZX3OVsg3dm9RsrQ6mHPyMUDrwFtjm8HvxnOrkn3oFXIKNYLgho53pxwTDCJrxa25YOYHWjXo4OLkNsNXck5XTh2fbEcXywbLcaFQwgTCMTFt2pFLaKLMVGJHG9fGCkgMio/qvoEgmsRv9+qyn/7+7ey3e7HsWcDM5SDSpybKkkBRiEfhz9vJmfzdSm5bZD56G6mhBz6DXMi77gyU+DifJedewDSIrFs0rnYS7tfhCzoB5zvmn34ESvbTXlT60jL99XHOAt4F74S96dL0/IfP70lD+fKOpFpkpGR+AjQPPj57Gu5XdoUzz7+3ntchU1s5aWQnxU3X8SOizdwNCfUNkaaO1FOPjQWZKc3BQfrfETKSDwBGDeJzX7T/DrQvv/+zu/ks5m3MuV2dM9hxFfkCdpr4qH0b+HkacRdvND5CL8CpkQ78OTZ5gNZ68yITwf3HPgxkTiziS8MFjdCQi5d4up8PScZhoOMxJdCTGTVygmJz6bxMgwPGYmHgpjEkY+gFq2JzjAWZCS+FEjWJFAL9xAC8Bg01mhq6QyjRkbiSyPWuspaTiY3K2eSvxmHx4OMxEOEITBDMsoWEzzDSJGReIiI+DZ/JTHtYxOXYfTISDw0UPv6YkUdBBDZylg8LmQkHiagiSWic9fHd8iRJBOfYaTISDxEcHVhiboaLAGhM8duLMhIPERw1oNEfSjhntrHWffEeJCReIjQPgnYw1bUUm2s3W46LM1AQmekHgUyEg8VnBYPKsO5kxBE1sEPEplfJHhG5FEgI/EQsevGwZQw2riBHyQyR/OuBrtpusaYYBLz8Ro+6Hj+4B6MO+U6fJh0328cb1mcwskpiGcPEd9WmkzDhDaOQGS+mHevu437EvPimMC5yJyorHOSmQbzxLIJJm2nBfxr4Dmn5X0wUG6J7PTljUhBGhqOiZ1PzCVKt+oN+dXTdWn0zFDuWbBLFwi/4nm6hCtjT80kCpuSUOpYofzxwnO5P7UuBYea9GzQNyzhGurg8Z52EWEWfCwizkUUScwDjk/N3p5IumFOlus3paaT4pmPszGK16D8NhptWWv29YFbSsCk62gke5g0Ev/ufEn+xZ05WaoUda3lScbEklgLIgik3vX1qdvzgsVNbZKI/8RMJtzAQbqJj6LTlZztg9AXFQ/Po1ZNtO/ZCDgILs3aD1wQ+PwkYqlyPTUuRaX+ZRx/GpJUkrilfYvPTC4mlsQZMpwVk91OZMhwBmQkzpB6ZCTOkHpkJM6QemQkzpB6ZCTOkHpkJM6QemQkzpB6ZCTOkHKI/CMkMWCvqwRF+AAAAABJRU5ErkJggg==;" vertex="1" parent="1">
          <mxGeometry x="340" y="230" width="67" height="61.7" as="geometry" />
        </mxCell>
      </root>
    </mxGraphModel>
  </diagram>
</mxfile>
